<mxfile host="app.diagrams.net" modified="2024-02-17T13:55:06.030Z" agent="Mozilla/5.0 (Windows NT 10.0; Win64; x64) AppleWebKit/537.36 (KHTML, like Gecko) Chrome/121.0.0.0 Safari/537.36" etag="P9OIKL6YOxBraNK7jQm1" version="23.1.5" type="github">
  <diagram id="R2lEEEUBdFMjLlhIrx00" name="Page-1">
    <mxGraphModel dx="2120" dy="688" grid="1" gridSize="10" guides="1" tooltips="1" connect="1" arrows="1" fold="1" page="1" pageScale="1" pageWidth="850" pageHeight="1100" math="0" shadow="0" extFonts="Permanent Marker^https://fonts.googleapis.com/css?family=Permanent+Marker">
      <root>
        <mxCell id="0" />
        <mxCell id="1" parent="0" />
        <mxCell id="TVdMzuLn7zQAk3tw_G6I-8" value="" style="edgeStyle=orthogonalEdgeStyle;rounded=0;orthogonalLoop=1;jettySize=auto;html=1;endArrow=none;endFill=0;" edge="1" parent="1" source="TVdMzuLn7zQAk3tw_G6I-1" target="TVdMzuLn7zQAk3tw_G6I-2">
          <mxGeometry relative="1" as="geometry" />
        </mxCell>
        <mxCell id="TVdMzuLn7zQAk3tw_G6I-1" value="Konzern" style="rounded=0;whiteSpace=wrap;html=1;" vertex="1" parent="1">
          <mxGeometry x="360" y="120" width="120" height="40" as="geometry" />
        </mxCell>
        <mxCell id="TVdMzuLn7zQAk3tw_G6I-9" value="" style="edgeStyle=orthogonalEdgeStyle;rounded=0;orthogonalLoop=1;jettySize=auto;html=1;endArrow=none;endFill=0;" edge="1" parent="1" source="TVdMzuLn7zQAk3tw_G6I-2" target="TVdMzuLn7zQAk3tw_G6I-6">
          <mxGeometry relative="1" as="geometry" />
        </mxCell>
        <mxCell id="TVdMzuLn7zQAk3tw_G6I-10" style="edgeStyle=orthogonalEdgeStyle;rounded=0;orthogonalLoop=1;jettySize=auto;html=1;entryX=0.5;entryY=0;entryDx=0;entryDy=0;endArrow=none;endFill=0;" edge="1" parent="1" source="TVdMzuLn7zQAk3tw_G6I-21" target="TVdMzuLn7zQAk3tw_G6I-5">
          <mxGeometry relative="1" as="geometry" />
        </mxCell>
        <mxCell id="TVdMzuLn7zQAk3tw_G6I-2" value="Teilkonzern" style="rounded=0;whiteSpace=wrap;html=1;" vertex="1" parent="1">
          <mxGeometry x="360" y="280" width="120" height="40" as="geometry" />
        </mxCell>
        <mxCell id="TVdMzuLn7zQAk3tw_G6I-3" value="Mitarbeiter" style="rounded=0;whiteSpace=wrap;html=1;" vertex="1" parent="1">
          <mxGeometry x="220" y="720" width="120" height="40" as="geometry" />
        </mxCell>
        <mxCell id="TVdMzuLn7zQAk3tw_G6I-12" style="edgeStyle=orthogonalEdgeStyle;rounded=0;orthogonalLoop=1;jettySize=auto;html=1;entryX=0.5;entryY=0;entryDx=0;entryDy=0;endArrow=none;endFill=0;" edge="1" parent="1" source="TVdMzuLn7zQAk3tw_G6I-4" target="TVdMzuLn7zQAk3tw_G6I-3">
          <mxGeometry relative="1" as="geometry" />
        </mxCell>
        <mxCell id="TVdMzuLn7zQAk3tw_G6I-13" style="edgeStyle=orthogonalEdgeStyle;rounded=0;orthogonalLoop=1;jettySize=auto;html=1;entryX=0.5;entryY=0;entryDx=0;entryDy=0;endArrow=none;endFill=0;exitX=0;exitY=0.5;exitDx=0;exitDy=0;" edge="1" parent="1" source="TVdMzuLn7zQAk3tw_G6I-19" target="TVdMzuLn7zQAk3tw_G6I-7">
          <mxGeometry relative="1" as="geometry" />
        </mxCell>
        <mxCell id="TVdMzuLn7zQAk3tw_G6I-4" value="Unterabteilung&lt;div&gt;&lt;br/&gt;&lt;/div&gt;" style="rounded=0;whiteSpace=wrap;html=1;" vertex="1" parent="1">
          <mxGeometry x="120" y="560" width="120" height="40" as="geometry" />
        </mxCell>
        <mxCell id="TVdMzuLn7zQAk3tw_G6I-11" value="" style="edgeStyle=orthogonalEdgeStyle;rounded=0;orthogonalLoop=1;jettySize=auto;html=1;endArrow=none;endFill=0;" edge="1" parent="1" source="TVdMzuLn7zQAk3tw_G6I-15" target="TVdMzuLn7zQAk3tw_G6I-4">
          <mxGeometry relative="1" as="geometry" />
        </mxCell>
        <mxCell id="TVdMzuLn7zQAk3tw_G6I-5" value="Abteilung" style="rounded=0;whiteSpace=wrap;html=1;" vertex="1" parent="1">
          <mxGeometry x="120" y="400" width="120" height="40" as="geometry" />
        </mxCell>
        <mxCell id="TVdMzuLn7zQAk3tw_G6I-6" value="Standort" style="rounded=0;whiteSpace=wrap;html=1;" vertex="1" parent="1">
          <mxGeometry x="360" y="440" width="120" height="40" as="geometry" />
        </mxCell>
        <mxCell id="TVdMzuLn7zQAk3tw_G6I-7" value="Abteilungsleiter" style="rounded=0;whiteSpace=wrap;html=1;" vertex="1" parent="1">
          <mxGeometry x="20" y="720" width="120" height="40" as="geometry" />
        </mxCell>
        <mxCell id="TVdMzuLn7zQAk3tw_G6I-16" value="" style="edgeStyle=orthogonalEdgeStyle;rounded=0;orthogonalLoop=1;jettySize=auto;html=1;startArrow=none;startFill=0;endArrow=none;endFill=0;" edge="1" parent="1" source="TVdMzuLn7zQAk3tw_G6I-5" target="TVdMzuLn7zQAk3tw_G6I-15">
          <mxGeometry relative="1" as="geometry">
            <mxPoint x="180" y="440" as="sourcePoint" />
            <mxPoint x="180" y="520" as="targetPoint" />
          </mxGeometry>
        </mxCell>
        <mxCell id="TVdMzuLn7zQAk3tw_G6I-15" value="hat" style="rhombus;whiteSpace=wrap;html=1;" vertex="1" parent="1">
          <mxGeometry x="120" y="470" width="120" height="60" as="geometry" />
        </mxCell>
        <mxCell id="TVdMzuLn7zQAk3tw_G6I-18" value="hat" style="rhombus;whiteSpace=wrap;html=1;" vertex="1" parent="1">
          <mxGeometry x="360" y="190" width="120" height="60" as="geometry" />
        </mxCell>
        <mxCell id="TVdMzuLn7zQAk3tw_G6I-20" value="hat" style="rhombus;whiteSpace=wrap;html=1;" vertex="1" parent="1">
          <mxGeometry x="360" y="350" width="120" height="60" as="geometry" />
        </mxCell>
        <mxCell id="TVdMzuLn7zQAk3tw_G6I-25" value="" style="edgeStyle=orthogonalEdgeStyle;rounded=0;orthogonalLoop=1;jettySize=auto;html=1;endArrow=none;endFill=0;" edge="1" parent="1" source="TVdMzuLn7zQAk3tw_G6I-5" target="TVdMzuLn7zQAk3tw_G6I-21">
          <mxGeometry relative="1" as="geometry">
            <mxPoint x="180" y="400" as="sourcePoint" />
            <mxPoint x="180" y="320" as="targetPoint" />
          </mxGeometry>
        </mxCell>
        <mxCell id="TVdMzuLn7zQAk3tw_G6I-26" style="edgeStyle=orthogonalEdgeStyle;rounded=0;orthogonalLoop=1;jettySize=auto;html=1;endArrow=none;endFill=0;" edge="1" parent="1" source="TVdMzuLn7zQAk3tw_G6I-21">
          <mxGeometry relative="1" as="geometry">
            <mxPoint x="360" y="300" as="targetPoint" />
          </mxGeometry>
        </mxCell>
        <mxCell id="TVdMzuLn7zQAk3tw_G6I-21" value="hat" style="rhombus;whiteSpace=wrap;html=1;" vertex="1" parent="1">
          <mxGeometry x="120" y="270" width="120" height="60" as="geometry" />
        </mxCell>
        <mxCell id="TVdMzuLn7zQAk3tw_G6I-27" value="" style="edgeStyle=orthogonalEdgeStyle;rounded=0;orthogonalLoop=1;jettySize=auto;html=1;entryX=0.5;entryY=0;entryDx=0;entryDy=0;endArrow=none;endFill=0;" edge="1" parent="1" source="TVdMzuLn7zQAk3tw_G6I-4" target="TVdMzuLn7zQAk3tw_G6I-19">
          <mxGeometry relative="1" as="geometry">
            <mxPoint x="180" y="600" as="sourcePoint" />
            <mxPoint x="80" y="720" as="targetPoint" />
          </mxGeometry>
        </mxCell>
        <mxCell id="TVdMzuLn7zQAk3tw_G6I-19" value="hat" style="rhombus;whiteSpace=wrap;html=1;" vertex="1" parent="1">
          <mxGeometry x="120" y="630" width="120" height="60" as="geometry" />
        </mxCell>
        <mxCell id="TVdMzuLn7zQAk3tw_G6I-39" value="" style="ellipse;whiteSpace=wrap;html=1;" vertex="1" parent="1">
          <mxGeometry x="660" y="120" width="120" height="20" as="geometry" />
        </mxCell>
        <mxCell id="TVdMzuLn7zQAk3tw_G6I-40" value="Branche" style="ellipse;whiteSpace=wrap;html=1;" vertex="1" parent="1">
          <mxGeometry x="520" y="180" width="120" height="20" as="geometry" />
        </mxCell>
        <mxCell id="TVdMzuLn7zQAk3tw_G6I-41" value="SteuerID" style="ellipse;whiteSpace=wrap;html=1;" vertex="1" parent="1">
          <mxGeometry x="520" y="150" width="120" height="20" as="geometry" />
        </mxCell>
        <mxCell id="TVdMzuLn7zQAk3tw_G6I-42" value="Name" style="ellipse;whiteSpace=wrap;html=1;" vertex="1" parent="1">
          <mxGeometry x="520" y="120" width="120" height="20" as="geometry" />
        </mxCell>
        <mxCell id="TVdMzuLn7zQAk3tw_G6I-43" value="Unterabteilungsnummer" style="ellipse;whiteSpace=wrap;html=1;" vertex="1" parent="1">
          <mxGeometry x="-60" y="560" width="140" height="20" as="geometry" />
        </mxCell>
        <mxCell id="TVdMzuLn7zQAk3tw_G6I-44" value="Land" style="ellipse;whiteSpace=wrap;html=1;" vertex="1" parent="1">
          <mxGeometry x="520" y="470" width="120" height="20" as="geometry" />
        </mxCell>
        <mxCell id="TVdMzuLn7zQAk3tw_G6I-45" value="Adresse" style="ellipse;whiteSpace=wrap;html=1;" vertex="1" parent="1">
          <mxGeometry x="520" y="440" width="120" height="20" as="geometry" />
        </mxCell>
        <mxCell id="TVdMzuLn7zQAk3tw_G6I-46" value="CEO" style="ellipse;whiteSpace=wrap;html=1;" vertex="1" parent="1">
          <mxGeometry x="520" y="340" width="120" height="20" as="geometry" />
        </mxCell>
        <mxCell id="TVdMzuLn7zQAk3tw_G6I-47" value="Namen" style="ellipse;whiteSpace=wrap;html=1;" vertex="1" parent="1">
          <mxGeometry x="520" y="310" width="120" height="20" as="geometry" />
        </mxCell>
        <mxCell id="TVdMzuLn7zQAk3tw_G6I-48" value="Umsatz" style="ellipse;whiteSpace=wrap;html=1;" vertex="1" parent="1">
          <mxGeometry x="520" y="280" width="120" height="20" as="geometry" />
        </mxCell>
        <mxCell id="TVdMzuLn7zQAk3tw_G6I-50" value="" style="ellipse;whiteSpace=wrap;html=1;" vertex="1" parent="1">
          <mxGeometry x="-40" y="620" width="120" height="20" as="geometry" />
        </mxCell>
        <mxCell id="TVdMzuLn7zQAk3tw_G6I-51" value="" style="ellipse;whiteSpace=wrap;html=1;" vertex="1" parent="1">
          <mxGeometry x="-40" y="590" width="120" height="20" as="geometry" />
        </mxCell>
        <mxCell id="TVdMzuLn7zQAk3tw_G6I-52" value="" style="ellipse;whiteSpace=wrap;html=1;" vertex="1" parent="1">
          <mxGeometry x="-40" y="460" width="120" height="20" as="geometry" />
        </mxCell>
        <mxCell id="TVdMzuLn7zQAk3tw_G6I-53" value="Abteilungsnummer" style="ellipse;whiteSpace=wrap;html=1;" vertex="1" parent="1">
          <mxGeometry x="-40" y="430" width="120" height="20" as="geometry" />
        </mxCell>
        <mxCell id="TVdMzuLn7zQAk3tw_G6I-54" value="Thema" style="ellipse;whiteSpace=wrap;html=1;" vertex="1" parent="1">
          <mxGeometry x="-40" y="400" width="120" height="20" as="geometry" />
        </mxCell>
      </root>
    </mxGraphModel>
  </diagram>
</mxfile>
